<?xml version="1.0" encoding="UTF-8"?>
<svg version="1.1" xmlns="http://www.w3.org/2000/svg" width="96" height="96">
<path d="M0 0 C1.53882225 -0.00337416 3.07764188 -0.00823176 4.61645508 -0.01449585 C7.83082626 -0.0218391 11.04449948 -0.01124538 14.25878906 0.01220703 C18.36120672 0.04069463 22.46198855 0.02427673 26.56434631 -0.00565529 C29.73877088 -0.02379824 32.91281312 -0.01793859 36.08724976 -0.00501633 C37.59899087 -0.00170155 39.11076768 -0.00570096 40.62246704 -0.01741409 C55.30712685 -0.10624951 55.30712685 -0.10624951 60.63272095 4.10464478 C61.14579803 4.61925262 61.65887512 5.13386047 62.1875 5.6640625 C62.95941177 6.43367813 62.95941177 6.43367813 63.74691772 7.21884155 C68.7948543 13.60305817 67.91135192 21.76012534 67.8515625 29.4765625 C67.85493666 31.01538475 67.85979426 32.55420438 67.86605835 34.09301758 C67.8734016 37.30738876 67.86280788 40.52106198 67.83935547 43.73535156 C67.81086787 47.83776922 67.82728577 51.93855105 67.85721779 56.04090881 C67.87536074 59.21533338 67.86950109 62.38937562 67.85657883 65.56381226 C67.85326405 67.07555337 67.85726346 68.58733018 67.86897659 70.09902954 C67.95781201 84.78368935 67.95781201 84.78368935 63.74691772 90.10928345 C63.23230988 90.62236053 62.71770203 91.13543762 62.1875 91.6640625 C61.67442291 92.17867035 61.16134583 92.6932782 60.63272095 93.22348022 C54.24850433 98.2714168 46.09143716 97.38791442 38.375 97.328125 C36.83617775 97.33149916 35.29735812 97.33635676 33.75854492 97.34262085 C30.54417374 97.3499641 27.33050052 97.33937038 24.11621094 97.31591797 C20.01379328 97.28743037 15.91301145 97.30384827 11.81065369 97.33378029 C8.63622912 97.35192324 5.46218688 97.34606359 2.28775024 97.33314133 C0.77600913 97.32982655 -0.73576768 97.33382596 -2.24746704 97.34553909 C-16.93212685 97.43437451 -16.93212685 97.43437451 -22.25772095 93.22348022 C-22.77079803 92.70887238 -23.28387512 92.19426453 -23.8125 91.6640625 C-24.32710785 91.15098541 -24.8417157 90.63790833 -25.37191772 90.10928345 C-30.4198543 83.72506683 -29.53635192 75.56799966 -29.4765625 67.8515625 C-29.47993666 66.31274025 -29.48479426 64.77392062 -29.49105835 63.23510742 C-29.4984016 60.02073624 -29.48780788 56.80706302 -29.46435547 53.59277344 C-29.43586787 49.49035578 -29.45228577 45.38957395 -29.48221779 41.28721619 C-29.50036074 38.11279162 -29.49450109 34.93874938 -29.48157883 31.76431274 C-29.47826405 30.25257163 -29.48226346 28.74079482 -29.49397659 27.22909546 C-29.58281201 12.54443565 -29.58281201 12.54443565 -25.37191772 7.21884155 C-24.85730988 6.70576447 -24.34270203 6.19268738 -23.8125 5.6640625 C-23.29942291 5.14945465 -22.78634583 4.6348468 -22.25772095 4.10464478 C-15.87350433 -0.9432918 -7.71643716 -0.05978942 0 0 Z " fill="#FBFCFC" transform="translate(28.8125,-0.6640625)"/>
<path d="M0 0 C1.53882225 -0.00337416 3.07764188 -0.00823176 4.61645508 -0.01449585 C7.83082626 -0.0218391 11.04449948 -0.01124538 14.25878906 0.01220703 C18.36120672 0.04069463 22.46198855 0.02427673 26.56434631 -0.00565529 C29.73877088 -0.02379824 32.91281312 -0.01793859 36.08724976 -0.00501633 C37.59899087 -0.00170155 39.11076768 -0.00570096 40.62246704 -0.01741409 C55.2544367 -0.10593075 55.2544367 -0.10593075 60.6320343 4.08352661 C65.81598563 9.35103018 67.75716015 13.87198375 67.75398254 21.27893066 C67.72817612 22.20008667 67.70236969 23.12124268 67.67578125 24.0703125 C67.66870651 25.0356189 67.66163177 26.00092529 67.65434265 26.9954834 C67.62654686 30.0524938 67.56383661 33.10761387 67.5 36.1640625 C67.47489797 38.24736922 67.45208815 40.3307049 67.43164062 42.4140625 C67.37676877 47.49811458 67.29059975 52.58076902 67.1875 57.6640625 C64.76669642 55.33579194 62.67194015 53.13693949 60.92578125 50.265625 C60.53326172 49.62761963 60.14074219 48.98961426 59.73632812 48.33227539 C59.32833984 47.65801514 58.92035156 46.98375488 58.5 46.2890625 C57.62174247 44.86288156 56.74282177 43.43710882 55.86328125 42.01171875 C55.42064941 41.29129395 54.97801758 40.57086914 54.52197266 39.82861328 C52.43590421 36.44495378 50.32018088 33.08099563 48.1875 29.7265625 C47.62736206 28.83155029 47.62736206 28.83155029 47.0559082 27.91845703 C45.13455212 24.7613947 45.13455212 24.7613947 42.1875 22.6640625 C41.80464844 23.72173828 41.80464844 23.72173828 41.4140625 24.80078125 C40.07199478 27.9336973 38.42020133 30.62120675 36.5625 33.4765625 C35.93085937 34.45238281 35.29921875 35.42820313 34.6484375 36.43359375 C34.16632812 37.16964844 33.68421875 37.90570313 33.1875 38.6640625 C29.71651466 37.50706739 29.37190835 36.83929928 27.48828125 33.84765625 C27.00166016 33.08388672 26.51503906 32.32011719 26.01367188 31.53320312 C25.51416016 30.73076172 25.01464844 29.92832031 24.5 29.1015625 C23.98888672 28.29525391 23.47777344 27.48894531 22.95117188 26.65820312 C21.68905045 24.66475901 20.43492843 22.66672165 19.1875 20.6640625 C18.83445801 21.20933594 18.48141602 21.75460938 18.11767578 22.31640625 C16.52312156 24.77037329 14.91799642 27.21724187 13.3125 29.6640625 C12.47912109 30.95183594 12.47912109 30.95183594 11.62890625 32.265625 C11.09394531 33.07773437 10.55898438 33.88984375 10.0078125 34.7265625 C9.51555176 35.48066406 9.02329102 36.23476563 8.51611328 37.01171875 C8.0776709 37.55699219 7.63922852 38.10226563 7.1875 38.6640625 C6.5275 38.6640625 5.8675 38.6640625 5.1875 38.6640625 C3.5508245 36.40107797 2.04184489 34.15139138 0.5625 31.7890625 C0.14226563 31.13808594 -0.27796875 30.48710937 -0.7109375 29.81640625 C-3.8125 24.93245231 -3.8125 24.93245231 -3.8125 22.6640625 C-4.4725 22.6640625 -5.1325 22.6640625 -5.8125 22.6640625 C-6.04839844 23.33566406 -6.28429687 24.00726562 -6.52734375 24.69921875 C-8.13766826 28.41422271 -10.20172494 31.69360328 -12.375 35.1015625 C-12.81247559 35.79443359 -13.24995117 36.48730469 -13.70068359 37.20117188 C-18.03171317 44.04734449 -22.41246633 50.86207809 -26.8125 57.6640625 C-29.92719389 54.54936861 -29.15818897 50.74687019 -29.18359375 46.5625 C-29.19262222 45.6520694 -29.2016507 44.74163879 -29.21095276 43.80361938 C-29.22548216 41.87188006 -29.23434865 39.94009122 -29.23803711 38.00830078 C-29.24987102 35.07107627 -29.29897529 32.13599556 -29.34960938 29.19921875 C-29.35908093 27.32032273 -29.36631246 25.44141381 -29.37109375 23.5625 C-29.39062607 22.69136566 -29.41015839 21.82023132 -29.43028259 20.92269897 C-29.37774819 13.7154309 -27.29307808 9.2058028 -22.25730896 4.08154297 C-15.83210624 -0.91607708 -7.72879936 -0.05988521 0 0 Z " fill="#FDFDFD" transform="translate(28.8125,-0.6640625)"/>
<path d="M0 0 C3.57757144 4.25939559 6.39433191 8.83047525 9.17578125 13.62304688 C10.06535943 15.11419804 11.02715419 16.56178855 12 18 C12.66 18 13.32 18 14 18 C15.6317293 15.52589781 17.14700164 13.06340341 18.625 10.5 C19.04523438 9.78457031 19.46546875 9.06914062 19.8984375 8.33203125 C20.93888589 6.55853967 21.97028904 4.77974734 23 3 C26.46752453 4.15584151 26.76212187 4.75840257 28.6015625 7.76171875 C29.08794189 8.54466309 29.57432129 9.32760742 30.07543945 10.13427734 C30.58679443 10.97684082 31.09814941 11.8194043 31.625 12.6875 C32.69298256 14.42380973 33.76200291 16.15948152 34.83203125 17.89453125 C35.3626416 18.75771973 35.89325195 19.6209082 36.43994141 20.51025391 C37.8580491 22.77345614 39.32057177 24.99226166 40.82421875 27.19921875 C41.4581958 28.13858276 41.4581958 28.13858276 42.10498047 29.09692383 C43.24527719 30.77601422 44.39766287 32.44687641 45.55078125 34.1171875 C47 37 47 37 46.8203125 39.70703125 C45.84957177 42.42048272 44.67540409 44.65443428 43 47 C42.34 47 41.68 47 41 47 C39.39599609 44.73681641 39.39599609 44.73681641 37.5234375 41.6015625 C36.853125 40.48265625 36.1828125 39.36375 35.4921875 38.2109375 C35.14510742 37.62280273 34.79802734 37.03466797 34.44042969 36.42871094 C33.38062101 34.63451605 32.30851903 32.84814127 31.234375 31.0625 C26 22.27117519 26 22.27117519 26 20 C22.9382716 22.86183182 20.7291437 25.75704573 18.5390625 29.32421875 C17.58386719 30.86819336 17.58386719 30.86819336 16.609375 32.44335938 C15.95453125 33.51392578 15.2996875 34.58449219 14.625 35.6875 C10.20030562 42.87542483 5.74696287 50.01936807 1 57 C-2.37368681 53.92486954 -4.50901962 50.71481144 -6.75 46.75 C-7.36359375 45.67234375 -7.9771875 44.5946875 -8.609375 43.484375 C-9.06828125 42.66453125 -9.5271875 41.8446875 -10 41 C-8.68 38.69 -7.36 36.38 -6 34 C-3 34 -3 34 -0.8125 36 C-0.214375 36.66 0.38375 37.32 1 38 C1.86941494 36.76055724 2.72005457 35.50792941 3.5625 34.25 C4.03816406 33.55390625 4.51382813 32.8578125 5.00390625 32.140625 C6.18617331 30.08137401 6.18617331 30.08137401 5.78125 27.9609375 C4.98436662 25.9607602 4.06426136 24.20851132 2.9375 22.375 C1 19 1 19 1 17 C-1.97943635 19.78013622 -4.06953476 22.49707833 -6.09375 26.02734375 C-6.92712891 27.46303711 -6.92712891 27.46303711 -7.77734375 28.92773438 C-8.34582031 29.92095703 -8.91429687 30.91417969 -9.5 31.9375 C-10.63170844 33.90708328 -11.76701806 35.87460257 -12.90625 37.83984375 C-13.40447266 38.70988037 -13.90269531 39.57991699 -14.41601562 40.47631836 C-16.09908592 43.15786855 -17.97987426 45.56520251 -20 48 C-20.86941494 46.76055724 -21.72005457 45.50792941 -22.5625 44.25 C-23.27599609 43.20585938 -23.27599609 43.20585938 -24.00390625 42.140625 C-25 40 -25 40 -24.78515625 37.91796875 C-24 36 -24 36 -21.875 33.0625 C-19.75227731 30.24193727 -19.75227731 30.24193727 -20.125 27.5 C-20.41375 26.675 -20.7025 25.85 -21 25 C-21.350625 23.906875 -21.70125 22.81375 -22.0625 21.6875 C-22.5265625 20.3571875 -22.5265625 20.3571875 -23 19 C-23.66 19 -24.32 19 -25 19 C-25.26425781 19.70664795 -25.52851563 20.4132959 -25.80078125 21.14135742 C-28.03087407 26.45735026 -31.10395803 31.33747208 -34 36.3125 C-34.64195313 37.43462891 -35.28390625 38.55675781 -35.9453125 39.71289062 C-36.56148437 40.77314453 -37.17765625 41.83339844 -37.8125 42.92578125 C-38.37582031 43.89942627 -38.93914063 44.87307129 -39.51953125 45.8762207 C-40.00808594 46.57706787 -40.49664062 47.27791504 -41 48 C-41.66 48 -42.32 48 -43 48 C-47.07693955 41.69927524 -47.07693955 41.69927524 -46.74658203 38.69677734 C-45.89041281 35.60415302 -44.61609142 33.49669624 -42.83203125 30.83203125 C-42.18556641 29.85556641 -41.53910156 28.87910156 -40.87304688 27.87304688 C-40.19306641 26.86306641 -39.51308594 25.85308594 -38.8125 24.8125 C-37.48387519 22.82021089 -36.1570348 20.82673057 -34.83203125 18.83203125 C-34.1870166 17.86475098 -33.54200195 16.8974707 -32.87744141 15.90087891 C-30.52576959 12.26725542 -28.35849112 8.54192624 -26.2331543 4.7722168 C-25.62274292 3.89496948 -25.62274292 3.89496948 -25 3 C-24.34 3 -23.68 3 -23 3 C-21.3633245 5.26298453 -19.85434489 7.51267112 -18.375 9.875 C-17.74464844 10.85146484 -17.74464844 10.85146484 -17.1015625 11.84765625 C-14 16.73161019 -14 16.73161019 -14 19 C-10.17483962 15.53233124 -7.54245288 11.54420806 -4.75 7.25 C-4.29109375 6.55261719 -3.8321875 5.85523438 -3.359375 5.13671875 C-2.23534594 3.42725789 -1.11708776 1.71400488 0 0 Z " fill="#105286" transform="translate(48,19)"/>
<path d="M0 0 C2.41017944 0.96407178 3.76677289 1.67006897 5.28125 3.8125 C6 6 6 6 5.1015625 8.140625 C4.61429688 8.83671875 4.12703125 9.5328125 3.625 10.25 C3.14289063 10.95640625 2.66078125 11.6628125 2.1640625 12.390625 C1.77992187 12.92171875 1.39578125 13.4528125 1 14 C-0.65 12.35 -2.3 10.7 -4 9 C-2.94124926 5.59687262 -1.99097846 2.98646769 0 0 Z " fill="#1C5788" transform="translate(68,52)"/>
</svg>
